<svg enable-background="new 0 0 24 24" id="faq" viewBox="0 0 24 24"
    xmlns="http://www.w3.org/2000/svg">
    <path d="M12,2C6.5,2,2,6.5,2,12s4.5,10,10,10s10-4.5,10-10S17.5,2,12,2z M12,17c-0.5,0-1-0.5-1-1s0.5-1,1-1s1,0.5,1,1
		S12.5,17,12,17z M13,13c0,0.5-0.5,1-1,1c-0.5,0-1-0.5-1-1v-0.7c0-0.4,0.3-0.8,0.7-0.9l0.7-0.2c0.4-0.1,0.6-0.5,0.6-0.9
		c0-0.5-0.4-0.9-0.9-0.9h-0.1c-0.3,0-0.6,0.2-0.8,0.4c-0.3,0.5-0.9,0.6-1.4,0.3C9.3,9.7,9.2,9.1,9.5,8.6C10,7.8,11,7.3,11.9,7.3h0.1
		c1.6,0,2.9,1.3,2.9,2.9C15,11.5,14.2,12.6,13,13z"></path>
</svg>