<svg fill="none" height="73" viewBox="0 0 73 73" width="73" xmlns="http://www.w3.org/2000/svg">
    <path
        d="M38.2869 60.6151L38.2972 60.6163L38.3076 60.6171C38.6971 60.6498 38.9624 60.9028 39.0574 61.2055C39.1486 61.4963 39.0782 61.8052 38.774 62.0195L38.7203 62.0574L38.6739 62.104L34.9732 65.8279C27.0386 73.8123 14.1606 73.5842 6.45051 65.2467C-0.780492 57.3915 -0.226495 44.9955 7.38687 37.3344L18.3695 26.2829C19.74 24.9038 21.2313 23.8616 22.8631 22.923C27.0003 20.6114 31.8284 19.918 36.3086 20.8428L36.3123 20.8436C38.6056 21.3051 40.9086 22.2303 42.9853 23.5064C44.2511 24.3176 45.4001 25.2431 46.4334 26.2829C47.1225 26.9763 47.8117 27.7858 48.3832 28.5908L48.3993 28.6136L48.4171 28.6351C48.7438 29.0296 48.6953 29.5563 48.3434 29.9104L44.1652 34.1148C43.7153 34.5675 42.981 34.4864 42.6052 33.9132C42.2211 33.1481 41.7057 32.3711 41.051 31.7123C39.899 30.553 38.5006 29.6607 36.9905 29.0273C34.558 27.997 31.8831 27.8741 29.3534 28.5105C27.2961 29.0281 25.3882 30.1858 23.8712 31.7123L12.5305 43.1242C7.56845 48.1173 7.82819 56.3035 13.1618 61.0316L13.1674 61.0366L13.1731 61.0414C18.1439 65.2739 25.5104 64.7448 30.0684 60.1582L30.7847 59.4374C31.0383 59.1822 31.4308 59.1103 31.7633 59.2442L31.7838 59.2524L31.8048 59.2595C32.9161 59.6322 34.0223 59.8796 35.0859 60.1174L35.1028 60.1212C36.2189 60.3708 37.2074 60.4944 38.2869 60.6151ZM65.3154 6.48211L65.3183 6.48481C73.5954 14.1197 73.7157 27.205 66.0091 35.0778C66.0085 35.0785 66.0079 35.0791 66.0072 35.0798L54.6704 46.4877C53.2999 47.8668 51.8085 48.909 50.1768 49.8476C46.0396 52.1591 41.2114 52.8525 36.7312 51.9277L36.7276 51.927C34.4161 51.4618 32.1105 50.6497 30.0413 49.4959C28.7807 48.6868 27.6362 47.7641 26.6065 46.7279C25.9174 46.0345 25.2281 45.225 24.6567 44.42L24.6405 44.3972L24.6227 44.3757C24.296 43.9812 24.3445 43.4546 24.6965 43.1004L28.8746 38.896C29.3246 38.4432 30.0591 38.5245 30.4349 39.0979C30.8375 39.8961 31.365 40.5507 31.9888 41.1784C33.1409 42.3377 34.5392 43.23 36.0494 43.8634C38.4819 44.8937 41.1568 45.0166 43.6864 44.3802C45.7438 43.8626 47.6516 42.7049 49.1686 41.1784L60.5094 29.7665C65.4714 24.7733 65.2117 16.5872 59.878 11.8591L59.8724 11.8541L59.8667 11.8492C54.8959 7.6168 47.5294 8.14593 42.9715 12.7325L42.2963 13.4119C41.9346 13.6687 41.5208 13.7448 41.2766 13.6465L41.2561 13.6383L41.2351 13.6312C39.05 12.8983 36.9554 12.3989 34.7232 12.2727C33.8855 12.1961 33.5428 11.2666 34.119 10.6749L37.5699 7.44185L37.5818 7.43074L37.5931 7.41912C45.0822 -0.232846 57.5104 -0.794388 65.3154 6.48211Z"
        fill="black" stroke="#F7F7FB" stroke-width="1.5" />
</svg>
