<svg fill="none" height="52" viewBox="0 0 96 52" width="96" xmlns="http://www.w3.org/2000/svg">
    <path
        d="M32.2922 20.112H20.5137V8.33225H12.6643V20.112H0.885742V27.9617H12.6642V39.7371H20.5136V27.9618H32.2921V20.112H32.2922ZM71.5592 24.0382C78.0549 24.0382 83.299 18.7581 83.299 12.2626C83.299 5.76423 78.0548 0.482727 71.5592 0.482727C70.2938 0.482727 69.0978 0.676564 67.9709 1.05452C70.1887 4.23858 71.5232 8.10247 71.5232 12.2626C71.5232 16.42 70.1887 20.2949 67.9709 23.4693C69.0978 23.8376 70.2938 24.0382 71.5592 24.0382ZM51.9285 24.0382C58.4296 24.0382 63.6738 18.7581 63.6738 12.2626C63.6738 5.76423 58.4296 0.482727 51.9285 0.482727C45.4329 0.482727 40.1501 5.76423 40.1501 12.2626C40.1501 18.7581 45.4329 24.0382 51.9285 24.0382ZM77.9164 32.5148C81.1725 35.3584 83.3377 39.0312 83.3377 43.6677V51.5171H95.1135V43.6677C95.1136 37.622 85.7908 33.9132 77.9164 32.5148ZM51.9285 31.8878C44.0817 31.8878 28.3716 35.8181 28.3716 43.6677V51.5171H75.4882V43.6677C75.4882 35.8181 59.7782 31.8878 51.9285 31.8878Z"
        fill="#C2C7D4" />
</svg>
