<svg fill="none" height="73" viewBox="0 0 72 73" width="72" xmlns="http://www.w3.org/2000/svg">
    <path
        d="M49.8838 41.6591C51.5316 42.7268 52.0066 44.9237 50.9514 46.576L50.9382 46.5964C49.8662 48.2509 47.6557 48.7232 46.0008 47.6508C42.0669 45.1015 37.4964 43.7545 32.7859 43.7545C19.3656 43.7545 8.44861 54.6713 8.44861 68.0918C8.44861 70.0635 6.85022 71.6618 4.8786 71.6618C2.90698 71.6618 1.30859 70.0635 1.30859 68.0918C1.30859 59.6825 4.58182 51.7802 10.5281 45.8339C13.488 42.8741 16.9318 40.5782 20.6796 39.0175L21.9019 38.5084L20.8368 37.7218C15.8587 34.0454 12.627 28.1412 12.627 21.4972C12.627 10.3822 21.671 1.33826 32.786 1.33826C43.901 1.33826 52.945 10.3823 52.945 21.4972C52.945 28.1453 49.7094 34.0525 44.7262 37.7285L43.66 38.515L44.8831 39.0244C46.617 39.7465 48.2905 40.6266 49.8838 41.6591L50.2693 41.0643L49.8838 41.6591ZM45.8048 21.4973C45.8048 14.3181 39.9652 8.47842 32.7859 8.47842C25.6067 8.47842 19.7671 14.318 19.7671 21.4973C19.7671 28.6766 25.6066 34.5161 32.7859 34.5161C39.9651 34.5161 45.8048 28.6765 45.8048 21.4973Z"
        fill="black" stroke="#F7F7FB" stroke-width="1.5" />
    <path
        d="M60.9808 54.2646V55.0146H61.7308H66.6988C68.6705 55.0146 70.2688 56.6128 70.2688 58.5846C70.2688 60.5563 68.6705 62.1546 66.6988 62.1546H61.7308H60.9808V62.9046V67.8726C60.9808 69.8443 59.3825 71.4426 57.4107 71.4426C55.439 71.4426 53.8407 69.8443 53.8407 67.8726V62.9046V62.1546H53.0907H48.1227C46.151 62.1546 44.5527 60.5563 44.5527 58.5846C44.5527 56.6128 46.151 55.0146 48.1227 55.0146H53.0907H53.8407V54.2646V49.2966C53.8407 47.3248 55.439 45.7266 57.4107 45.7266C59.3825 45.7266 60.9808 47.3248 60.9808 49.2966V54.2646Z"
        fill="black" stroke="#F7F7FB" stroke-width="1.5" />
</svg>
